<?xml version="1.0" encoding="utf-8"?>
<svg version="1.1" id="Layer_1" xmlns="http://www.w3.org/2000/svg" xmlns:xlink="http://www.w3.org/1999/xlink" x="0px" y="0px"
	 viewBox="0 0 1000 1000" style="enable-background:new 0 0 1000 1000;" xml:space="preserve">
<style type="text/css">
	.st0{fill:#010101;}
	.st1{fill:#ED1E25;}
	.st2{fill:#9B1B1D;}
	.st3{fill:#712B8B;}
</style>
<g>
	<path d="M849.74,400.51c-15.56,13.59-33.19,20.74-54.21,17.1c-9.02-1.56-17.65-4.51-26.29-7.39c-10.72-3.57-21.43-7.25-32.87-7.53
		c-13.59-0.33-26.77,2.4-39.74,6.14c-8.95,2.58-17.3,6.45-23.64,13.67c-0.2,0.23-0.55,0.33-0.85-0.1c0.17-1.1,0.32-2.27,0.53-3.43
		c0.17-0.96,0.4-1.91,0.62-2.86c2.98-12.62,9.06-22.96,21.22-28.81c6.13-2.95,12.69-4.36,19.34-5.49
		c11.37-1.94,22.24-5.34,31.18-12.96c17.38-14.83,18.59-34.8,17.74-55.8c-1.72,0.63-2.11,1.73-2.72,2.56
		c-2.66,3.57-5.36,7.11-7.86,10.79c-10.28,15.1-25.68,19.93-42.74,21.03c-11.38,0.74-22.76-0.78-34.16-0.92
		c-6.47-0.08-12.92,0.18-19.53,0.89c0.47-1.72,1.81-2.19,2.76-2.97c11.73-9.64,23.99-18.67,34.32-29.93
		c9.41-10.26,13.75-22.07,11.85-36.1c-1.33-9.85-4.1-19.28-7.27-28.64c-0.25-0.75-0.2-1.72-1.31-2.06c-0.22,1.1-0.46,2.15-0.63,3.21
		c-2.2,13.42-7.81,25.22-16.99,35.26c-8.4,9.18-18.94,14.56-30.94,17.57c-17.29,4.34-32.9,11.75-44.36,26.07
		c-1.31,1.63-2.21,1.26-3.25-0.16c-0.96-1.32-1.85-2.67-2.38-4.24c-2.26-6.71-1.37-12.89,3.4-18.23
		c6.73-7.54,13.35-15.13,18.46-23.93c12.56-21.61,11.27-44.81-3.73-63.91c-3.78-4.82-8.11-9.12-13.78-13.3
		c0.59,2.37,0.95,3.82,1.32,5.26c4.72,18.73,1.95,35.91-10.46,51.16c-6.48,7.96-14.72,13.75-23.23,19.22
		c-11.26,7.23-20.66,16.22-26.58,28.39c-1.3,2.68-2.37,2.31-4.28,0.87c-8.26-6.21-11.14-14.87-11.5-24.74
		c-0.48-13.35,2.97-26,6.94-38.54c3.85-12.18,9-23.99,10.49-36.84c1.71-14.86-1.31-28.25-12.02-39.34
		c-10.26-10.61-23.53-16.74-35.85-24.7c-0.21,1.59,0.67,2.37,1.15,3.29c4.45,8.54,7.66,17.46,8.56,27.12
		c1.41,15.19-3.02,28.94-10.18,42.05c-6.83,12.51-15.46,23.85-23.29,35.71c-8.57,12.98-15.63,26.53-17.06,42.41
		c-1.15,12.69-0.32,24.95,6.93,36c0.26,0.39,0.78,0.83,0.11,1.52c-2.62-0.9-4.99-2.41-7.39-3.82c-14.58-8.57-22.1-20.94-20.96-38.2
		c0.37-5.64,1.46-11.18,1.84-16.8c1.32-19.37-4.03-35.82-20.67-47.35c-6.85-4.74-14.39-8.02-22.31-10.47
		c-2.84-0.88-5.64-1.94-9.26-2.16c2.3,3.12,4.26,5.81,6.26,8.48c5.74,7.67,11.66,15.3,12.78,25.24c0.98,8.67,0.63,17.38-1.46,25.87
		c-3.28,13.37-6.9,26.66-10.25,40.01c-1.17,4.68-1.98,9.45-3.12,14.99c-1.89-4.74-3.45-8.74-5.07-12.73
		c-5.06-12.47-9.98-25-17.47-36.3c-6.4-9.65-14.87-16.59-26.01-20.07c-6.77-2.11-13.73-3.09-20.78-3.57
		c-5.8-0.39-11.6-0.57-17.49-0.01c4.3,2.74,8.82,4.98,12.8,8.08c16.13,12.52,26,28.35,25.89,49.35c-0.04,7.8-0.63,15.59-0.02,23.42
		c1.02,13.05,3.99,25.47,10.79,36.8c1.53,2.55,1.18,3.29-1.84,3.52c-1.06,0.08-2.18-0.06-3.22-0.3c-7.62-1.81-13.2-6.39-17.14-13
		c-3.33-5.6-6.63-11.2-10.51-16.45c-8.01-10.86-17.64-19.79-30.52-24.51c-19.61-7.19-37.51-2.48-54.44,8.29
		c-0.18,0.11-0.17,0.52-0.31,0.98c0.78,0.05,1.4,0.11,2.03,0.13c23.81,0.92,41.69,11.27,52.52,32.91c4,7.98,6.72,16.46,9.73,24.82
		c5.12,14.23,11.71,27.57,22.77,38.24c1.32,1.28,1.1,1.97-0.25,2.98c-4.5,3.37-9.57,5.03-15.12,5.28
		c-10.83,0.49-20.74-2.98-30.39-7.34c-15.02-6.77-28.57-16.01-42.02-25.39c-11.69-8.15-24.57-11.15-38.62-9.14
		c-19.57,2.8-35.99,12.13-50.79,24.76c-1.52,1.3-3.08,2.61-4.34,4.66c6.15,0.48,11.87,0.75,17.54,1.39
		c19.84,2.22,37.96,8.73,53.4,21.81c8.57,7.27,16.02,15.61,23.07,24.28c12.18,14.99,26.52,27.03,44.36,34.84
		c11.37,4.98,22.69,9.41,35.4,6.37c0.16,0.83-0.25,1.2-0.64,1.57c-10.8,10.62-23.38,14.89-38.38,11.06
		c-8.5-2.16-16.15-6.27-24.09-9.77c-10.73-4.73-21.81-7.31-33.56-4.24c-10.48,2.75-18.58,9.13-25.73,16.94
		c-5.33,5.83-9.94,12.18-14.45,19.67c3.93-1.1,7.02-1.98,10.12-2.82c8.19-2.21,16.47-3.94,25.02-3.37
		c15.71,1.04,29.67,6.79,42.4,15.85c9.37,6.67,18.27,14,28.2,19.86c2.29,1.36,4.63,2.64,7.01,3.99c-0.97,1.16-2.01,0.7-2.92,0.75
		c-14.29,0.8-28.6,1.47-42.72,4.04c-12.72,2.31-24.56,6.51-33.68,16.28c-10.45,11.2-15.33,25.17-20.02,39.61
		c1.71-0.41,2.31-1.52,3.12-2.33c6.58-6.58,13.98-12.05,22.33-16.14c15.63-7.66,31.57-9.63,48.06-2.6
		c5.78,2.46,11.82,4.29,17.91,5.91c13.52,3.6,27.15,5.86,41.16,3.13c0.98-0.19,2.26-1.16,3-0.15c0.82,1.13,0.12,2.5-0.51,3.67
		c-0.41,0.76-0.82,1.55-1.35,2.22c-7.03,8.75-15.65,14.96-27,16.72c-3.54,0.55-7.08,1.11-10.65,1.44
		c-13.73,1.28-24.06,8.1-31.6,19.38c-6.77,10.12-9.08,21.49-8.67,33.46c0.24,6.87,1.13,13.68,3.45,20.68
		c0.47-0.74,0.76-1.06,0.9-1.43c10.36-28.64,37.36-42.42,65.29-40.6c12.86,0.84,24.87-0.77,36.11-7.06c2.55-1.43,3.3-0.55,4.07,1.75
		c3.57,10.69,0.39,19.58-7.08,27.38c-5.61,5.86-12.26,10.36-19.19,14.46c-11.03,6.52-22.11,12.95-31.08,22.35
		c-9.57,10.04-16.06,21.47-16.85,35.67c-0.96,17.31,5.73,32.97,10.29,49.17c0.91-1.93,1.53-3.86,2.12-5.8
		c8.13-26.54,24.87-44.98,51.05-54.75c11.8-4.41,23.92-7.79,35.89-11.66c19.98-6.45,35.47-18.38,45.98-36.62
		c4.04-7.01,6.32-14.6,6.81-22.97c5.58,6.52,9,21.61,7.17,30.51c-1.86,9.05-6.89,16.29-13,22.91c-3.68,3.99-7.6,7.74-10.86,12.11
		c-11.11,14.9-13.73,31.02-7.17,48.53c3.11,8.31,7.7,15.77,13.06,22.79c1.67,2.19,3.21,4.52,5.31,6.28c0.3-0.19,0.46-0.24,0.46-0.3
		c0.16-4.23,0.35-8.45,0.44-12.68c0.51-23.97,10.88-42.67,30.19-56.6c9.59-6.92,19.83-12.93,29-20.44c2.64-2.17,5.16-4.48,8.31-7.23
		c-0.49,1.84-0.78,2.97-1.08,4.1c-4.06,14.96-8.73,29.76-10.99,45.15c-1.86,12.69-0.65,24.71,8.05,34.99
		c8.09,9.55,18.14,16.73,28.43,23.65c0.07,0.04,0.31-0.18,0.57-0.34c-0.48-0.95-0.97-1.91-1.44-2.88
		c-7.16-14.68-9.65-30.02-6.63-46.17c2.08-11.13,7.73-20.31,15.07-28.74c10.76-12.36,20.91-25.13,21.92-42.56
		c0.09-1.62,1.04-1.44,1.98-0.86c1.01,0.62,2.07,1.27,2.82,2.16c5.81,6.84,8.61,14.87,7.98,23.74c-0.82,11.49-2.11,22.96,1.09,34.27
		c3.87,13.69,10.28,25.58,23.83,32.14c7.23,3.5,14.95,5.16,22.86,5.98c4.43,0.46,8.88,1.09,13.41,0.73
		c-0.07-0.47-0.05-0.61-0.1-0.66c-0.8-0.72-1.61-1.44-2.42-2.15c-8.9-7.68-15.5-16.95-19.23-28.14
		c-5.38-16.12-4.28-32.11,1.59-47.81c5.07-13.58,7.6-27.36,4.71-41.78c-0.41-2.02,0.54-2.14,2.02-2.19
		c3.65-0.11,7.11,0.55,10.43,2.1c6.73,3.13,11.58,8.35,15.71,14.29c7.82,11.26,12.64,23.92,17.14,36.74
		c3.62,10.33,6.02,21.09,10.78,31.01c5.49,11.43,13.69,19.72,26.5,22.56c5.55,1.23,11.17,1.43,16.83,1.18
		c12.35-0.56,24.58-2.82,37-2.43c0.26,0.01,0.52-0.27,1.09-0.59c-6.65-3.26-12.94-6.63-18.8-10.75
		c-14.74-10.37-24.08-24.12-26.75-42.16c-1.74-11.78-1.08-23.61-0.94-35.43c0.15-12.86,0.22-25.81-5.38-37.69
		c-8.41-17.85-16.76-35.93-35.75-46.22c1.53-0.29,2.65-0.61,3.79-0.7c11.95-0.95,22.77,2.16,32.49,9.15
		c10.23,7.36,16.96,17.48,22.85,28.39c10.44,19.31,26.47,28.67,48.69,26.44c11.45-1.15,22.28-4.55,32.87-8.87
		c0.22-0.09,0.32-0.5,0.51-0.83c-6.76-2.3-13.44-4.53-20.08-6.86c-13.47-4.72-23.59-13.41-30.81-25.71
		c-4.12-7.01-6.42-14.67-8.95-22.28c-3.8-11.44-7.68-22.84-14.42-32.99c-1.28-1.93-2.67-3.78-4.01-5.66
		c2.09,0.74,3.79,1.86,5.5,2.95c13.7,8.77,27,18.24,41.99,24.8c7.34,3.21,14.97,5.22,23.09,4.31c16.53-1.85,28.94-11.86,41.7-21.31
		c-6.03,0.81-11.96,1.24-17.92,0.93c-15.03-0.79-28.38-5.71-39.45-16.23c-5.9-5.61-9.71-12.75-14.4-19.25
		c-8.37-11.58-18.01-21.7-31.3-27.77c-1.57-0.72-4.58-0.83-4.33-2.55c0.29-2.05,3.21-2.17,5.2-2.49c9.76-1.55,19.45-0.75,29.13,0.88
		c6.83,1.15,12.81,4.68,19.37,6.58c20.53,5.94,37.18,0.34,49.81-16.92c4.7-6.43,8.3-13.47,11.27-20.85
		c0.54-1.34,1.07-2.69,1.66-4.18c-0.59,0-0.73-0.04-0.81,0.01c-2.04,1.22-4.06,2.49-6.12,3.68c-15.57,9.02-31.9,12.89-49.61,7.18
		c-9.66-3.12-17.9-8.75-25.83-14.88c-10.45-8.07-22.1-13.24-35.23-14.9c-2.05-0.26-2.2-1.06-1.65-2.77
		c2-6.21,6.12-10.66,11.53-14.01c6.47-4.01,13.67-6.05,21.06-7.44c16.76-3.16,33.71-2.72,50.63-2.62c4.88,0.03,9.76,0,14.62-0.61
		c19.36-2.43,31.2-12.59,36.37-31.34c2.47-8.94,3.13-18.14,3.74-27.34c0.32-4.78,0.51-9.57,0.79-14.94
		C857.16,393.6,853.56,397.18,849.74,400.51z M589.1,684.48c-26.5,13.24-54.09,19.78-83.43,19.78
		c-85.1,0-159.76-57.73-178.44-140.78c-15.89-70.67,4.65-131.16,58.76-179.33c31.2-27.78,68.62-41.83,110.31-44.13
		c87-4.8,165.98,52.8,187.58,136.65C705.22,559.5,665.67,646.23,589.1,684.48z"/>
	<path d="M352.75,450.74c4.12,2.78,8.22,5.62,12.17,8.64c1.85,1.42,2.48,1.02,3.4-0.93c11.33-23.99,28.29-43.24,49.91-58.4
		c20.48-14.36,43.15-23.21,68.03-26.31c2.48-0.31,3.05-0.23,2.18,2.4c-9.09,27.37-18.12,54.76-27.05,82.18
		c-0.77,2.37-1.82,3.07-4.31,3.06c-19.87-0.12-39.74-0.07-59.61-0.06c-9.44,0-18.88,0-29.21,0c1.13,1.01,1.56,1.47,2.06,1.83
		c6.86,4.94,13.74,9.85,20.59,14.81c2.65,1.91,5.2,3.63,8.79,3.6c16.92-0.14,33.85-0.01,50.77-0.12c2.68-0.02,3.11,0.67,2.28,3.1
		c-3.19,9.39-6.19,18.85-9.39,28.25c-0.58,1.71-0.47,2.69,1.1,3.75c4.48,3.04,8.89,6.2,13.25,9.41c1.8,1.33,2.45,1.17,3.19-1.12
		c6.33-19.53,12.81-39.01,19.23-58.52c6.51-19.8,13-39.61,19.48-59.42c5.55-16.95,11.01-33.92,16.67-50.83
		c1.01-3.01,0.04-3.48-2.64-3.52c-12.6-0.2-25.11,0.46-37.6,2.5c-18.11,2.96-35.16,8.86-51.36,17.31
		c-17.05,8.89-32.15,20.44-45.32,34.43c-11.2,11.89-20.6,25.09-27.81,39.81C350.55,448.66,351.06,449.59,352.75,450.74z"/>
	<path d="M400.81,631.06c-16.16-15.36-28.59-33.29-36.79-54.11c-7.03-17.85-10.39-36.37-10.34-55.51
		c0.02-8.68,0.89-17.31,2.39-25.87c0.64-3.61,0.66-3.57,3.76-1.3c2.97,2.18,5.98,4.29,8.97,6.44
		c20.58,14.79,41.15,29.61,61.78,44.33c1.63,1.16,1.6,2.13,1.02,3.77c-1.62,4.58-3.08,9.22-4.59,13.83
		c-4.83,14.68-9.67,29.35-14.48,44.04c-2.78,8.5-5.51,17.02-8.56,26.44c9.32-6.72,17.9-12.87,26.43-19.09
		c1.33-0.97,1.94-2.54,2.47-4.12c5.37-16.2,10.82-32.38,16.16-48.59c0.7-2.12,1.3-2.34,3.14-0.97c7.91,5.87,16,11.5,23.88,17.41
		c2.04,1.53,3.33,1.44,5.26-0.06c4.02-3.12,8.17-6.08,12.42-8.89c2.11-1.4,1.65-2.04-0.09-3.29
		c-19.42-13.98-38.75-28.07-58.18-42.03c-20.76-14.93-41.59-29.75-62.39-44.64c-9.05-6.48-18.08-13-27.15-19.52
		c-0.32,0.42-0.59,0.64-0.7,0.93c-7.73,19.87-11.84,40.49-11.88,61.78c-0.04,22.64,4.11,44.55,13,65.47
		c9.1,21.4,21.77,40.34,38.59,56.49c1.44,1.38,2.26,1.39,3.74,0.28c3.9-2.93,7.84-5.82,11.9-8.51
		C402.99,634.13,403.03,633.17,400.81,631.06z"/>
	<path d="M675.55,495.16c-0.19-1.31-0.28-2.68-2.44-2.62c-5.64,0.17-11.29,0.09-16.93,0.05c-1.41-0.01-1.89,0.33-1.56,1.88
		c0.56,2.64,0.86,5.34,1.25,8.02c2.94,20.02,1.62,39.83-3.78,59.26c-7.57,27.21-21.85,50.47-42.39,69.91
		c-2.21,2.09-2.76,1.26-3.47-0.98c-2.97-9.24-5.97-18.48-9.02-27.7c-5.87-17.75-11.78-35.48-17.7-53.21
		c-0.71-2.12-0.61-3.54,1.55-5.08c17.39-12.36,34.65-24.89,51.94-37.38c6.46-4.66,12.9-9.36,19.34-14.04
		c-0.11-0.22-0.21-0.44-0.32-0.67c-9.33,0-18.67,0.14-28-0.07c-4.06-0.09-7.34,1.29-10.49,3.58c-13.06,9.49-26.18,18.89-39.21,28.42
		c-2.12,1.55-2.7,0.88-3.38-1.28c-2.96-9.38-6.07-18.71-9.1-28.06c-0.44-1.36-0.68-2.65-2.66-2.61c-5.97,0.1-11.94,0.06-17.91,0.02
		c-1.36-0.01-1.72,0.42-1.27,1.73c1.03,2.96,1.99,5.94,2.97,8.92c8.47,25.72,16.96,51.44,25.4,77.17
		c9.15,27.92,18.27,55.85,27.35,83.79c0.63,1.95,1.05,2.7,3.19,1.33c20.57-13.16,37.66-29.9,51.03-50.29
		c18.98-28.95,28.04-60.89,27.73-95.48C677.59,511.53,676.75,503.32,675.55,495.16z"/>
	<path d="M552.67,461.37c-2.29,0.01-2.66-1.32-3.17-2.87c-6.76-20.73-13.5-41.47-20.28-62.2c-2.22-6.78-4.53-13.53-6.8-20.29
		c-3.18,7.35-5.24,14.87-8.27,21.97c-2.99,7-1.39,13.4,0.78,19.98c4.4,13.33,8.73,26.69,13.26,39.97c0.9,2.65,0.76,3.51-2.33,3.45
		c-9.01-0.17-18.03,0.18-27.03-0.18c-4.01-0.16-5.99,0.89-6.98,4.87c-1.29,5.14-3.44,10.06-4.63,15.39c61.93,0,123.44,0,185.27,0
		c-1.88-7.91-4.32-15.17-7.2-22.28c-10.59-26.13-26.96-48.04-48.39-66.27c-15.33-13.05-32.58-22.81-51.39-29.82
		c-11.07-4.12-22.48-7.03-34.21-8.66c-1.88-0.26-2.72,0.26-3.27,2.02c-1.48,4.74-2.94,9.5-4.73,14.14c-1,2.6-0.01,3.08,2.24,3.36
		c12.18,1.53,24.02,4.5,35.41,9.02c32.3,12.82,57.54,34.08,75.49,63.89c2.75,4.57,5.53,9.15,7.41,14.25
		c-0.44,0.1-0.54,0.15-0.65,0.15C613.03,461.27,582.85,461.26,552.67,461.37z"/>
	<path d="M581.14,655.07c-0.43-1.33-0.95-1.66-2.32-0.98c-3.58,1.78-7.23,3.39-10.87,5.05c-28.24,12.88-57.73,16.18-88.22,11.25
		c-16.58-2.68-32.23-8.2-47.03-16.16c-1.82-0.98-2.55-1.52-0.23-3.07c5.5-3.67,10.77-7.66,16.14-11.52
		c18.2-13.09,36.41-26.16,54.57-39.3c1.7-1.23,2.87-1.13,4.54,0.07c19.58,14.14,39.21,28.21,58.84,42.28
		c4.26,3.06,8.56,6.06,13.55,9.59c-0.37-1.24-0.48-1.61-0.6-1.98c-3.01-9.11-6.14-18.19-8.97-27.36c-0.69-2.25-1.79-3.72-3.65-5.04
		c-14.03-9.99-27.97-20.1-42-30.09c-1.59-1.13-1.87-1.55-0.06-2.83c8.41-5.93,16.7-12.03,25.07-18.02c1.15-0.82,1.94-1.44,1.35-3.1
		c-1.83-5.2-3.56-10.44-5.19-15.71c-0.65-2.1-1.3-2.48-3.21-1.08c-9.53,6.95-19.17,13.77-28.76,20.65
		c-26.4,18.94-52.79,37.9-79.18,56.85c-13.2,9.47-26.4,18.93-39.58,28.39c0.23,0.38,0.3,0.61,0.46,0.75
		c0.48,0.44,0.98,0.86,1.49,1.26c24.35,19.12,51.69,31.24,82.41,35.71c23.15,3.37,46.02,2.27,68.7-3.36
		c12.54-3.12,24.59-7.53,36.04-13.54c1.12-0.59,2.58-0.9,1.98-2.73C584.65,665.73,582.87,660.41,581.14,655.07z"/>
</g>
</svg>
